<?xml version="1.0" ?><svg viewBox="0 0 60 60" xmlns="http://www.w3.org/2000/svg"><title/><g id="colour"><path d="M44,36.15385V59H36.74074C36.6163,49.57075,33.01769,47.57692,30,47.57692S23.3837,49.57075,23.25926,59H16V36.15385h2.59259a.62487.62487,0,0,0,.2385-.06231A.18228.18228,0,0,0,18.883,36.05a.505.505,0,0,0,.13469-.12461c0-.02073.02076-.02073.03114-.03112V35.863a.4188.4188,0,0,0,.06228-.22843V32H40.88889v3.63462a.4188.4188,0,0,0,.06228.22843v.03118c.01038.01039.03114.01039.03114.03112A.505.505,0,0,0,41.117,36.05a.18228.18228,0,0,0,.0519.04158.62487.62487,0,0,0,.2385.06231Z" fill="#606060"/><polygon fill="#3a3a3a" points="59 36 41 36 50 21 59 36"/><polygon fill="#494849" points="50 21 41 36 44 36 51.5 23.5 50 21"/><polygon fill="#2d2d2d" points="43.4 32 41 36 59 36 56.6 32 43.4 32"/><polygon fill="#3a3a3a" points="43.4 32 41 36 44 36 46.4 32 43.4 32"/><polygon fill="#3a3a3a" points="19 36 1 36 10 21 19 36"/><polygon fill="#494849" points="10 21 1 36 4 36 11.5 23.5 10 21"/><polygon fill="#2d2d2d" points="3.4 32 1 36 19 36 16.6 32 3.4 32"/><polygon fill="#3a3a3a" points="3.4 32 1 36 4 36 6.4 32 3.4 32"/><polygon fill="#3a3a3a" points="49 16 39 16 44 2 49 16"/><polygon fill="#494849" points="39 16 41 16 45 4.8 44 2 39 16"/><polygon fill="#3a3a3a" points="21 16 11 16 16 2 21 16"/><polygon fill="#494849" points="11 16 13 16 17 4.8 16 2 11 16"/><polygon fill="#606060" points="47 16 47 25.889 41 34.7 41 16 47 16"/><rect fill="#4c4c4c" height="2" width="6" x="41" y="16"/><polygon fill="#606060" points="19 16 19 34.7 13 25.889 13 16 19 16"/><rect fill="#4c4c4c" height="2" width="6" x="13" y="16"/><path d="M36,8v3.54163l-2.13814,5.11462a.43377.43377,0,0,0-.04368.19792V33H26.18182V16.85417a.43377.43377,0,0,0-.04368-.19792L24,11.54163V8Z" fill="#606060"/><polygon fill="#4c4c4c" points="36 11 34.407 15 25.593 15 24 11 36 11"/><polygon fill="#4c4c4c" points="19 34.7 13 25.889 13 22.519 19 31 19 34.7"/><path d="M34,7v3.54163l-2.13818,5.11462a.4342.4342,0,0,0-.0437.19788V32h2V15.85413a.4342.4342,0,0,1,.0437-.19788L36,10.54163V7Z" fill="#4c4c4c"/><path d="M30,59H24c0-7,2-11,6-11s6,4,6,11Z" fill="#3a3a3a"/><path d="M31.01953,48.10651C32.3374,49.9585,33,52.98181,33,57H24.06567c-.04.63892-.06567,1.30011-.06567,2H36C36,52.626,34.33594,48.75067,31.01953,48.10651Z" fill="#2d2d2d"/><path d="M39.40747,38.15381a.62536.62536,0,0,1-.23853-.06226.18314.18314,0,0,1-.052-.04163.50725.50725,0,0,1-.13464-.12457c0-.02075-.02075-.02075-.03113-.03113V37.863a.419.419,0,0,1-.06226-.22845L38.97339,32h1.91553v3.63458a.419.419,0,0,0,.06226.22845v.03119c.01038.01038.03113.01038.03113.03113a.50725.50725,0,0,0,.13464.12457.18314.18314,0,0,0,.052.04163.62536.62536,0,0,0,.23853.06226H44V59H42V38.15381Z" fill="#4c4c4c"/><path d="M20.59253,38.15381a.62536.62536,0,0,0,.23853-.06226.18314.18314,0,0,0,.052-.04163.50725.50725,0,0,0,.13464-.12457c0-.02075.02075-.02075.03113-.03113V37.863a.419.419,0,0,0,.06226-.22845L21.02661,32H19.11108v3.63458a.419.419,0,0,1-.06226.22845v.03119c-.01038.01038-.03113.01038-.03113.03113a.50725.50725,0,0,1-.13464.12457.18314.18314,0,0,1-.052.04163.62536.62536,0,0,1-.23853.06226H16V59h2V38.15381Z" fill="#4c4c4c"/><rect fill="#606060" height="23" width="12" x="44" y="36"/><rect fill="#606060" height="23" width="12" x="4" y="36"/><path d="M8,46h4c0-3.31641-.89453-6-2-6S8,42.68359,8,46Z" fill="#3a3a3a"/><path d="M48,46h4c0-3.31641-.89453-6-2-6S48,42.68359,48,46Z" fill="#3a3a3a"/><path d="M20,46h4c0-3.31641-.89453-6-2-6S20,42.68359,20,46Z" fill="#3a3a3a"/><path d="M28,42h4c0-3.31641-.89453-6-2-6S28,38.68359,28,42Z" fill="#3a3a3a"/><path d="M36,46h4c0-3.31641-.89453-6-2-6S36,42.68359,36,46Z" fill="#3a3a3a"/><polygon fill="#4c4c4c" points="41 34.7 47 25.889 47 22.519 41 31 41 34.7"/><rect fill="#4c4c4c" height="2" width="12" x="4" y="36"/><rect fill="#4c4c4c" height="2" width="12" x="44" y="36"/></g><g data-name="Layer 1" id="Layer_1"><path d="M59.85742,35.48571l-9-15a1.03937,1.03937,0,0,0-1.71484,0L48,22.39V17.00036h1a.99944.99944,0,0,0,.94824-1.31641l-5-15a.99947.99947,0,0,0-1.89648,0l-5,15A.99944.99944,0,0,0,39,17.00036h1v14H35V16.19274l1.92871-4.8208A1.0076,1.0076,0,0,0,37,11.00036v-7a1,1,0,0,0-2,0v2H33v-2a1,1,0,0,0-2,0v2H29v-2a1,1,0,0,0-2,0v2H25v-2a1,1,0,0,0-2,0v7a1.0076,1.0076,0,0,0,.07129.37158L25,16.19274V31.00036H20v-14h1a.99944.99944,0,0,0,.94824-1.31641l-5-15a.99947.99947,0,0,0-1.89648,0l-5,15A.99944.99944,0,0,0,11,17.00036h1V22.39l-1.14258-1.9043a1.03937,1.03937,0,0,0-1.71484,0l-9,15A.99986.99986,0,0,0,1,37.00036H3v22a.99942.99942,0,0,0,1,1H56a.99942.99942,0,0,0,1-1v-22h2a.99986.99986,0,0,0,.85742-1.51465ZM50,22.9442l4.8335,8.05615h-9.667Zm-4-1.94385v2H42v-2Zm-4-2v-2h4v2Zm4,6v.723L42,32.39V25.00036ZM44,4.16246l3.6123,10.83789H40.3877ZM25,8.00036H35v2H25Zm2,19v-10h6v10Zm6,2v2H27v-2Zm-6.32275-14-1.2002-3H34.523l-1.2002,3ZM16,4.16246l3.6123,10.83789H12.3877ZM14,23.00036v-2h4v2Zm4,2V32.39l-4-6.66669v-.723Zm-4-6v-2h4v2ZM10,22.9442l4.8335,8.05615H5.1665ZM2.7666,35.00036l1.2-2H16.03345l1.2,2Zm12.2334,23H11v-3a1,1,0,1,0-2,0v3H5v-21H15Zm2-2h6.14514c-.06213.62775-.111,1.28406-.13147,2H17Zm8.01611,2c.12781-4.319,1.14941-9,4.98389-9s4.85608,4.681,4.98389,9Zm17.98389,0H36.98633c-.02051-.71594-.06934-1.37225-.13147-2H43Zm0-4H36.56275c-1.16675-5.95508-4.44287-7-6.56274-7s-5.396,1.04492-6.56274,7H17v-17h2a.98918.98918,0,0,0,.3457-.0697c.02808-.01044.0542-.02112.08105-.034a.99073.99073,0,0,0,.27344-.18427l.00806-.00623a1.00325,1.00325,0,0,0,.16187-.21265c.01221-.02167.01685-.04578.02734-.06812.01318-.02765.02319-.05518.03381-.08417a.99743.99743,0,0,0,.06506-.32239c0-.00653.00366-.0119.00366-.01849v-3H40v3c0,.00659.00366.012.00366.01855a.99825.99825,0,0,0,.06519.32239c.0105.02893.02051.05634.03369.084.0105.02234.01514.04651.02734.06824a1.00325,1.00325,0,0,0,.16187.21265l.00806.00623a.99457.99457,0,0,0,.27344.18433c.02686.01282.053.0235.08105.03394a.9878.9878,0,0,0,.3457.0697h2Zm12,4H51v-3a1,1,0,0,0-2,0v3H45v-21H55Zm-12.2334-23,1.2-2H56.03345l1.2,2Z"/><path d="M8,47.00036h4a.99942.99942,0,0,0,1-1c0-3.48437-.92773-7-3-7s-3,3.51563-3,7A.99942.99942,0,0,0,8,47.00036Zm2-5.91016a8.10664,8.10664,0,0,1,.97168,3.91016H9.02832A8.10664,8.10664,0,0,1,10,41.0902Z"/><path d="M48,47.00036h4a.99942.99942,0,0,0,1-1c0-3.48437-.92773-7-3-7s-3,3.51563-3,7A.99942.99942,0,0,0,48,47.00036Zm2-5.91016a8.10664,8.10664,0,0,1,.97168,3.91016H49.02832A8.10664,8.10664,0,0,1,50,41.0902Z"/><path d="M30,19.00036a.99974.99974,0,0,0-1,1v1a1,1,0,0,0,2,0v-1A.99974.99974,0,0,0,30,19.00036Z"/><path d="M22,39.00036c-2.07227,0-3,3.51563-3,7a.99942.99942,0,0,0,1,1h4a.99942.99942,0,0,0,1-1C25,42.516,24.07227,39.00036,22,39.00036Zm-.97168,6A8.10664,8.10664,0,0,1,22,41.0902a8.10664,8.10664,0,0,1,.97168,3.91016Z"/><path d="M30,35.00036c-2.07227,0-3,3.51563-3,7a.99942.99942,0,0,0,1,1h4a.99942.99942,0,0,0,1-1C33,38.516,32.07227,35.00036,30,35.00036Zm-.97168,6A8.10664,8.10664,0,0,1,30,37.0902a8.10664,8.10664,0,0,1,.97168,3.91016Z"/><path d="M38,39.00036c-2.07227,0-3,3.51563-3,7a.99942.99942,0,0,0,1,1h4a.99942.99942,0,0,0,1-1C41,42.516,40.07227,39.00036,38,39.00036Zm-.97168,6A8.10664,8.10664,0,0,1,38,41.0902a8.10664,8.10664,0,0,1,.97168,3.91016Z"/></g></svg>